{"title":"The Pirates of Blood River(1962)MPEG-4[DaScubaDude]","uid":13944350,"size":884835376,"categoryP":"video","categoryS":"movies","magnet":"?xt=urn:btih:1b27f356130db92a652a1f7d8f53d5905664d692&amp;dn=The+Pirates+of+Blood+River%281962%29MPEG-4%5BDaScubaDude%5D&amp;tr=udp%3A%2F%2Ftracker.leechers-paradise.org%3A6969&amp;tr=udp%3A%2F%2Fzer0day.ch%3A1337&amp;tr=udp%3A%2F%2Fopen.demonii.com%3A1337&amp;tr=udp%3A%2F%2Ftracker.coppersurfer.tk%3A6969&amp;tr=udp%3A%2F%2Fexodus.desync.com%3A6969","seeders":1,"leechers":1,"uploader":"dascuba","files":1,"time":1458496397,"description":"The Pirates of Blood River (1962)\r\n1h 27min | Action, Adventure, Drama | August 1962 (USA)\r\nA group of ruthless pirates attack a 17th Century Huguenot settlement on the Isle of Devon in search of treasure and will stop at nothing to obtain it.\r\nDirector: John Gilling\r\nWriters: John Hunter (screenplay), John Gilling (screenplay) | 1 more credit »\r\nStars: Kerwin Mathews, Glenn Corbett, Christopher Lee\r\n\r\nGeneral\r\nComplete name                            : The Pirates of Blood RiverICONS_OF_ADVENTURE_Title2.mp4\r\nFormat                                   : MPEG-4\r\nFormat profile                           : Base Media\r\nCodec ID                                 : isom\r\nFile size                                : 844 MiB\r\nDuration                                 : 1h 26mn\r\nOverall bit rate                         : 1 358 Kbps\r\nMovie name                               : ICONS_OF_ADVENTURE\r\nWriting application                      : Lavf54.6.100\r\n\r\nVideo\r\nID                                       : 1\r\nFormat                                   : AVC\r\nFormat/Info                              : Advanced Video Codec\r\nFormat profile                           :   \r\nFormat settings, CABAC                   : No\r\nFormat settings, ReFrames                : 6 frames\r\nFormat settings, GOP                     : M=1, N=60\r\nCodec ID                                 : avc1\r\nCodec ID/Info                            : Advanced Video Coding\r\nDuration                                 : 1h 26mn\r\nBit rate                                 : 1 222 Kbps\r\nWidth                                    : 720 pixels\r\nHeight                                   : 404 pixels\r\nDisplay aspect ratio                     : 16:9\r\nFrame rate mode                          : Constant\r\nFrame rate                               : 29.970 fps\r\nColor space                              : YUV\r\nChroma subsampling                       : 4:2:0\r\nBit depth                                : 8 bits\r\nScan type                                : Progressive\r\nBits/(Pixel*Frame)                       : 0.140\r\nStream size                              : 759 MiB (90%)\r\n\r\nAudio\r\nID                                       : 2\r\nFormat                                   : AAC\r\nFormat/Info                              : Advanced Audio Codec\r\nFormat profile                           : LC\r\nCodec ID                                 : 40\r\nDuration                                 : 1h 26mn\r\nBit rate mode                            : Constant\r\nBit rate                                 : 129 Kbps\r\nChannel(s)                               : 2 channels\r\nChannel positions                        : Front: L R\r\nSampling rate                            : 44.1 KHz\r\nCompression mode                         : Lossy\r\nStream size                              : 80.3 MiB (10%)","torrent":{"xt":"urn:btih:1b27f356130db92a652a1f7d8f53d5905664d692","amp;dn":"The+Pirates+of+Blood+River%281962%29MPEG-4%5BDaScubaDude%5D","amp;tr":["udp%3A%2F%2Ftracker.leechers-paradise.org%3A6969","udp%3A%2F%2Fzer0day.ch%3A1337","udp%3A%2F%2Fopen.demonii.com%3A1337","udp%3A%2F%2Ftracker.coppersurfer.tk%3A6969","udp%3A%2F%2Fexodus.desync.com%3A6969"],"infoHash":"1b27f356130db92a652a1f7d8f53d5905664d692","infoHashBuffer":{"type":"Buffer","data":[27,39,243,86,19,13,185,42,101,42,31,125,143,83,213,144,86,100,214,146]},"announce":[],"urlList":[]}}